HIERARCHY
ROOT Hips
{
	OFFSET -1.602300 6.242603 43.997101
	CHANNELS 6 Xposition Yposition Zposition Zrotation Xrotation Yrotation
	JOINT Chest
	{
		OFFSET -0.204900 1.598101 7.917301
		CHANNELS 6 Xposition Yposition Zposition Zrotation Xrotation Yrotation
		JOINT Chest2
		{
			OFFSET 0.000000 0.000000 3.404099
			CHANNELS 6 Xposition Yposition Zposition Zrotation Xrotation Yrotation
			JOINT Neck
			{
				OFFSET 0.000000 0.000000 7.928600
				CHANNELS 6 Xposition Yposition Zposition Zrotation Xrotation Yrotation
				JOINT Head
				{
					OFFSET 0.000000 0.000000 2.173897
					CHANNELS 6 Xposition Yposition Zposition Zrotation Xrotation Yrotation
					End Site
					{
						OFFSET 0.000000 0.000001 10.404503
					}
				}
			}
			JOINT LeftCollar
			{
				OFFSET 2.833800 -1.396299 4.843300
				CHANNELS 6 Xposition Yposition Zposition Zrotation Xrotation Yrotation
				JOINT LeftShoulder
				{
					OFFSET 4.363600 0.000000 0.000000
					CHANNELS 6 Xposition Yposition Zposition Zrotation Xrotation Yrotation
					JOINT LeftElbow
					{
						OFFSET 0.000000 -0.000001 -10.306900
						CHANNELS 6 Xposition Yposition Zposition Zrotation Xrotation Yrotation
						JOINT LeftWrist
						{
							OFFSET 0.000000 -0.000001 -12.404900
							CHANNELS 6 Xposition Yposition Zposition Zrotation Xrotation Yrotation
							End Site
							{
								OFFSET 0.000000 0.000000 -2.173901
							}
						}
					}
				}
			}
			JOINT RightCollar
			{
				OFFSET -2.354800 -1.897200 5.063099
				CHANNELS 6 Xposition Yposition Zposition Zrotation Xrotation Yrotation
				JOINT RightShoulder
				{
					OFFSET -4.375800 0.000000 0.000000
					CHANNELS 6 Xposition Yposition Zposition Zrotation Xrotation Yrotation
					JOINT RightElbow
					{
						OFFSET 0.000000 -0.000001 -10.005001
						CHANNELS 6 Xposition Yposition Zposition Zrotation Xrotation Yrotation
						JOINT RightWrist
						{
							OFFSET 0.000000 -0.000001 -13.174900
							CHANNELS 6 Xposition Yposition Zposition Zrotation Xrotation Yrotation
							End Site
							{
								OFFSET 0.000000 0.000000 -2.173901
							}
						}
					}
				}
			}
		}
	}
	JOINT LeftHip
	{
		OFFSET 2.240600 0.386800 -2.614101
		CHANNELS 6 Xposition Yposition Zposition Zrotation Xrotation Yrotation
		JOINT LeftKnee
		{
			OFFSET 0.000000 -0.000001 -18.592899
			CHANNELS 6 Xposition Yposition Zposition Zrotation Xrotation Yrotation
			JOINT LeftAnkle
			{
				OFFSET 0.000000 -0.000001 -18.765800
				CHANNELS 6 Xposition Yposition Zposition Zrotation Xrotation Yrotation
				End Site
				{
					OFFSET 0.000000 -8.655000 0.000000
				}
			}
		}
	}
	JOINT RightHip
	{
		OFFSET -2.014900 -0.220900 -2.615898
		CHANNELS 6 Xposition Yposition Zposition Zrotation Xrotation Yrotation
		JOINT RightKnee
		{
			OFFSET 0.000000 -0.000001 -18.633900
			CHANNELS 6 Xposition Yposition Zposition Zrotation Xrotation Yrotation
			JOINT RightAnkle
			{
				OFFSET 0.000000 -0.000001 -18.285101
				CHANNELS 6 Xposition Yposition Zposition Zrotation Xrotation Yrotation
				End Site
				{
					OFFSET 0.000000 -7.524500 0.000000
				}
			}
		}
	}
}
MOTION
Frames: 6
Frame Time: 0.041667
-5.065798 26.612305 7.461014 1.445002 -7.372697 13.386216 -0.204900 1.598101 7.917305 0.161651 14.946021 -0.048744 0.000001 -0.000002 3.404097 -4.855146 -13.120396 -1.971196 -0.000003 -0.000001 7.928606 10.520441 17.453121 -17.676395 0.000000 -0.000003 2.173903 0.906520 0.072893 1.255803 2.833800 -1.396302 4.843308 -0.081142 10.189163 -0.747050 4.363598 0.000006 -0.000002 -69.218858 -14.971833 -56.771621 0.000006 0.000003 -10.306890 557.262239 -127.523375 579.526306 -0.000008 0.000005 -12.404898 136.015827 374.247484 -310.304127 -2.354802 -1.897202 5.063106 9.978393 10.200012 -18.254364 -4.375799 0.000003 -0.000003 11.554741 1.790095 82.681346 -0.000004 0.000002 -10.004992 -603.199687 -167.960868 -574.591139 -0.000001 0.000005 -13.174897 -80.260091 -177.391351 223.936440 2.240598 0.386804 -2.614103 142.325091 -43.012447 107.072190 -0.000001 -0.000001 -18.592894 -198.865903 58.588031 208.313270 -0.000002 0.000001 -18.765797 -34.889101 8.806961 83.305270 -2.014898 -0.220892 -2.615897 -111.831698 -13.224417 -83.426184 0.000000 -0.000001 -18.633886 170.530836 25.513306 -177.699666 -0.000006 -0.000004 -18.285084 -16.254170 33.446159 -207.071296
-5.097599 26.627405 7.471306 1.706512 -7.231351 13.140428 -0.204900 1.598103 7.917305 -0.128747 14.640304 -0.261203 0.000001 0.000001 3.404096 -4.504605 -13.007385 -1.924764 -0.000003 -0.000002 7.928598 9.976633 17.855434 -16.894840 -0.000000 -0.000001 2.173899 0.915571 0.246498 1.189904 2.833800 -1.396301 4.843298 0.024920 10.155122 -0.834189 4.363598 0.000001 -0.000005 -68.160555 -14.778711 -57.009437 0.000003 -0.000001 -10.306894 565.336506 -130.255792 586.166561 -0.000006 0.000003 -12.404899 134.823986 374.128912 -311.111346 -2.354804 -1.897202 5.063103 10.060997 10.243893 -18.142675 -4.375793 0.000002 -0.000002 11.596240 2.743452 82.377908 -0.000000 0.000006 -10.004996 -601.667539 -167.561479 -575.578894 -0.000003 0.000002 -13.174893 -80.378452 -177.293433 222.691515 2.240597 0.386806 -2.614101 141.947778 -42.794410 106.922322 -0.000000 0.000002 -18.592892 -198.904425 58.633916 208.324868 -0.000003 0.000001 -18.765795 -34.940560 9.152464 82.650951 -2.014897 -0.220890 -2.615897 -112.180359 -13.128414 -83.633515 0.000001 0.000000 -18.633884 170.717013 25.553184 -177.627088 -0.000005 -0.000007 -18.285084 -16.317839 33.424822 -206.960333
-5.121599 26.636507 7.478607 1.880648 -7.137750 12.827092 -0.204900 1.598099 7.917310 -0.339551 14.340966 -0.412439 -0.000000 -0.000002 3.404106 -4.129175 -12.990336 -1.877726 -0.000001 0.000002 7.928600 9.449482 18.368153 -16.160183 -0.000000 -0.000004 2.173901 0.896065 0.438412 1.149054 2.833799 -1.396301 4.843300 0.268212 10.165299 -0.852004 4.363599 0.000002 -0.000008 -67.480705 -14.179553 -57.300021 0.000002 0.000005 -10.306906 568.822963 -131.557489 589.402650 -0.000005 0.000006 -12.404893 133.942346 373.910401 -314.135208 -2.354804 -1.897202 5.063107 10.564412 10.432644 -18.042244 -4.375789 0.000004 0.000002 11.247471 3.601001 82.072639 -0.000002 0.000007 -10.004995 -600.224785 -167.133322 -576.621618 -0.000001 0.000007 -13.174891 -80.564383 -177.252958 221.293485 2.240598 0.386800 -2.614104 141.606965 -42.479272 106.678020 -0.000001 0.000000 -18.592892 -198.999802 58.659611 208.325920 -0.000002 0.000001 -18.765795 -35.154775 9.559365 81.999269 -2.014896 -0.220896 -2.615896 -112.374206 -13.333897 -83.819617 -0.000000 0.000004 -18.633883 170.754497 25.609912 -177.602144 -0.000006 -0.000006 -18.285084 -16.334514 33.420829 -206.925826
-5.134998 26.640503 7.478313 1.913311 -7.117019 12.420889 -0.204900 1.598098 7.917309 -0.416279 14.060497 -0.491877 0.000000 -0.000003 3.404100 -3.736975 -12.958146 -1.828539 -0.000001 -0.000000 7.928599 8.927151 18.896000 -15.411403 -0.000000 -0.000001 2.173908 0.882857 0.669616 1.116942 2.833800 -1.396300 4.843303 0.699000 10.114891 -0.908494 4.363600 0.000005 0.000000 -67.222524 -13.202435 -57.555586 0.000004 0.000004 -10.306900 568.618166 -131.066030 589.947754 -0.000005 0.000005 -12.404897 132.636577 373.438216 -319.117120 -2.354804 -1.897203 5.063097 10.159522 10.669796 -17.868970 -4.375794 0.000004 -0.000005 11.745497 4.598343 81.866087 -0.000001 0.000004 -10.004994 -598.826672 -166.802454 -577.752916 -0.000005 0.000005 -13.174893 -80.720453 -177.244433 219.916600 2.240598 0.386805 -2.614104 141.351680 -42.210952 106.353367 -0.000002 -0.000000 -18.592896 -199.082693 58.692560 208.385998 -0.000002 0.000001 -18.765795 -35.217319 9.941001 81.290507 -2.014899 -0.220897 -2.615900 -112.413063 -13.737388 -84.005685 0.000001 0.000004 -18.633886 170.728078 25.651926 -177.611747 -0.000005 -0.000005 -18.285084 -16.328851 33.424555 -206.925034
-5.146200 26.644106 7.476898 1.959133 -7.070330 11.973819 -0.204899 1.598097 7.917308 -0.522469 13.760786 -0.523616 -0.000001 0.000004 3.404101 -3.319781 -12.936062 -1.768636 -0.000001 -0.000006 7.928595 8.377403 19.429942 -14.651072 0.000000 0.000002 2.173908 0.860426 0.923182 1.125322 2.833801 -1.396304 4.843298 1.201493 10.037574 -0.967580 4.363597 0.000003 0.000005 -67.171243 -11.978114 -57.789951 0.000003 -0.000001 -10.306898 565.433222 -129.114276 588.262883 -0.000005 0.000007 -12.404896 130.432940 373.097827 -325.038867 -2.354802 -1.897204 5.063092 10.593687 10.896297 -17.709325 -4.375793 -0.000002 -0.000003 11.514639 5.293672 81.541196 -0.000001 0.000008 -10.004993 -597.473038 -166.500642 -578.888421 -0.000003 0.000003 -13.174891 -80.894575 -177.259200 218.417538 2.240599 0.386804 -2.614104 141.061930 -41.912701 106.004912 -0.000001 0.000000 -18.592894 -199.169587 58.743602 208.476990 -0.000002 0.000000 -18.765797 -35.300470 10.422325 80.391839 -2.014897 -0.220898 -2.615897 -112.535781 -14.043937 -84.245513 0.000000 0.000002 -18.633883 170.783170 25.661589 -177.594412 -0.000006 -0.000005 -18.285082 -16.344885 33.419409 -206.884640
-5.155800 26.647806 7.475311 2.439433 -6.850845 11.607786 -0.204900 1.598102 7.917302 -1.078838 13.372687 -0.582264 -0.000000 0.000002 3.404105 -2.942058 -12.898610 -1.720638 -0.000001 0.000005 7.928601 7.856726 19.977296 -13.873776 0.000000 0.000001 2.173909 0.837254 1.178209 1.179265 2.833799 -1.396296 4.843300 1.948633 9.884320 -1.024169 4.363597 0.000001 0.000001 -67.415135 -10.476236 -57.997923 0.000004 0.000005 -10.306900 558.635927 -125.738223 583.748456 -0.000002 0.000007 -12.404894 127.497543 372.621790 -330.810541 -2.354805 -1.897197 5.063102 10.788815 11.111703 -17.484320 -4.375791 -0.000002 -0.000000 11.562664 6.030291 81.216598 -0.000006 0.000006 -10.004993 -596.250653 -166.275505 -580.146760 -0.000003 0.000002 -13.174900 -80.875232 -177.299826 216.775574 2.240597 0.386804 -2.614103 140.370250 -41.633322 105.737954 -0.000002 -0.000000 -18.592892 -199.201784 58.821528 208.594824 -0.000002 0.000001 -18.765795 -35.411433 10.999642 79.293264 -2.014894 -0.220894 -2.615897 -113.171050 -14.197665 -84.567803 -0.000000 0.000002 -18.633886 170.899939 25.649609 -177.559811 -0.000006 -0.000006 -18.285084 -16.375549 33.408118 -206.816270
